<svg width="859" height="215" viewBox="0 0 859 215" fill="none" xmlns="http://www.w3.org/2000/svg">
<g filter="url(#filter0_d_2_4)">
<path d="M55.1824 162.66C47.5025 162.702 40.7464 161.598 34.9142 159.35C29.0817 157.041 24.1167 154.278 20.0193 151.06C15.9815 147.782 12.7243 144.589 10.2475 141.483C7.83068 138.376 6.13808 136.045 5.16968 134.49L12.9452 124.368C14.0342 126.042 15.6665 128.313 17.842 131.181C20.0772 133.989 22.9127 136.854 26.3485 139.776C29.784 142.637 33.9072 145.075 38.7181 147.089C43.5288 149.043 49.084 150.003 55.3839 149.969C61.3838 149.937 66.8379 148.827 71.7462 146.641C76.7145 144.454 80.6871 141.223 83.6641 136.946C86.641 132.67 88.1125 127.382 88.0786 121.082C88.0501 115.802 86.976 111.338 84.8563 107.69C82.7962 103.981 79.9293 100.846 76.2554 98.2858C72.5815 95.7256 68.3693 93.4683 63.6187 91.5139C58.9277 89.4991 53.9971 87.5457 48.8268 85.6536C45.2194 84.293 41.4308 82.6934 37.4608 80.8548C33.5505 78.9559 29.8778 76.6057 26.4426 73.8042C23.0071 70.9427 20.1984 67.4778 18.0164 63.4095C15.8944 59.3409 14.8179 54.4266 14.7868 48.6667C14.7577 43.2668 15.7501 38.1613 17.7642 33.3504C19.7783 28.5395 22.6054 24.2942 26.2456 20.6145C29.8855 16.8748 34.2497 13.9412 39.3383 11.8137C44.4269 9.68621 50.0612 8.6058 56.2411 8.57246C62.181 8.54041 67.6463 9.50094 72.6369 11.454C77.6272 13.3471 81.9904 15.7836 85.7265 18.7635C89.5223 21.6831 92.4488 24.7274 94.5059 27.8963L87.537 37.384C85.8421 34.6331 83.4879 32.0058 80.4744 29.502C77.4608 26.9982 73.9099 24.9774 69.8215 23.4394C65.7928 21.8411 61.3185 21.0552 56.3986 21.0818C50.2787 21.1148 45.0659 22.4629 40.7602 25.1262C36.5145 27.7892 33.293 31.2266 31.0957 35.4385C28.898 39.5904 27.8117 43.9764 27.8366 48.5963C27.8593 52.7962 28.7485 56.3615 30.5044 59.2921C32.2602 62.2226 34.5836 64.7001 37.4746 66.7246C40.3652 68.689 43.5244 70.382 46.9521 71.8035C50.4398 73.2247 53.927 74.5559 57.4138 75.7971C63.2454 77.9257 68.8377 80.2055 74.1909 82.6367C79.6038 85.0075 84.4193 87.8616 88.6373 91.1989C92.8551 94.4762 96.2069 98.5082 98.6927 103.295C101.178 108.021 102.439 113.775 102.476 120.555C102.524 129.435 100.465 137.006 96.2984 143.268C92.1321 149.531 86.4879 154.331 79.3658 157.67C72.2434 160.948 64.1823 162.612 55.1824 162.66ZM159.238 162.099C152.338 162.136 146.955 159.855 143.091 155.256C139.285 150.597 137.36 144.037 137.314 135.577L136.999 77.0778L127.639 77.1283L127.585 67.2284L136.945 67.1779L136.759 32.7084L149.899 32.6375L150.085 67.107L173.035 66.9832L173.088 76.8831L150.139 77.0069L150.45 134.786C150.478 139.886 151.489 143.781 153.483 146.47C155.478 149.159 158.305 150.494 161.965 150.474C165.505 150.455 168.62 149.448 171.309 147.454L174.695 157.876C172.662 159.147 170.267 160.149 167.511 160.884C164.756 161.679 161.998 162.084 159.238 162.099ZM211.142 205.74L233.557 156.568L189.243 66.8958L204.093 66.8156L240.954 143.028L273.662 66.4403L288.512 66.3602L225.992 205.66L211.142 205.74ZM314.336 158.382L313.501 3.58447L326.641 3.51358L327.476 158.311L314.336 158.382ZM409.406 160.749C399.746 160.801 391.095 158.718 383.452 154.499C375.869 150.28 369.898 144.522 365.538 137.226C361.179 129.869 358.974 121.601 358.925 112.421C358.887 105.521 360.083 99.0946 362.511 93.1414C364.998 87.1279 368.45 81.8592 372.865 77.3353C377.281 72.8114 382.422 69.2736 388.288 66.7219C394.155 64.1702 400.418 62.8764 407.078 62.8405C416.198 62.7913 424.308 64.7576 431.41 68.7393C438.571 72.6607 444.241 78.1202 448.419 85.1178C452.656 92.115 454.92 100.203 455.21 109.381C455.213 110.101 455.187 110.702 455.129 111.182C455.132 111.602 455.074 112.142 454.958 112.803L371.979 113.251C372.018 120.45 373.672 126.802 376.942 132.304C380.212 137.807 384.675 142.133 390.332 145.282C396.049 148.371 402.567 149.896 409.887 149.857C416.847 149.819 423.079 148.345 428.584 145.436C434.148 142.466 438.775 138.241 442.465 132.761L452.213 137.928C447.872 145.092 441.932 150.674 434.394 154.674C426.915 158.675 418.586 160.7 409.406 160.749ZM372.646 103.347L442.035 102.972C441.224 97.2168 439.186 92.1577 435.923 87.7952C432.659 83.3728 428.53 79.915 423.537 77.4219C418.603 74.9285 413.196 73.6976 407.316 73.7294C401.257 73.762 395.743 75.0518 390.777 77.5986C385.81 80.0855 381.719 83.5576 378.503 88.015C375.347 92.4121 373.394 97.5227 372.646 103.347ZM491.284 157.428L490.482 8.92972L504.162 8.85592L504.529 76.8949L585.618 76.4575L585.251 8.41844L598.841 8.34512L599.642 156.843L586.052 156.916L585.683 88.5173L504.594 88.9548L504.963 157.354L491.284 157.428ZM680.493 159.287C666.513 159.362 656.507 156.266 650.473 149.999C644.439 143.731 641.382 133.217 641.302 118.458L641.011 64.4584L654.151 64.3875L654.43 116.047C654.492 127.687 656.517 135.986 660.504 140.944C664.491 145.843 671.134 148.267 680.434 148.217C689.793 148.166 696.41 145.671 700.283 140.73C704.217 135.728 706.152 127.408 706.089 115.768L705.81 64.1088L718.95 64.0379L719.241 118.037C719.321 132.797 716.378 143.343 710.412 149.675C704.506 156.007 694.533 159.211 680.493 159.287ZM808 158.599C799.84 158.643 792.39 156.703 785.649 152.779C778.907 148.856 773.568 143.424 769.63 136.486L769.735 155.925L756.596 155.996L755.76 1.19844L768.9 1.12755L769.342 82.9364C773.084 76.0161 778.275 70.588 784.914 66.6521C791.553 62.7162 798.982 60.7261 807.202 60.6818C816.022 60.6342 823.923 62.7216 830.906 66.944C837.889 71.1664 843.38 76.9568 847.38 84.3154C851.44 91.6136 853.495 99.9726 853.546 109.392C853.597 118.872 851.602 127.313 847.562 134.715C843.582 142.117 838.153 147.936 831.276 152.173C824.399 156.41 816.64 158.552 808 158.599ZM804.699 147.187C811.599 147.149 817.71 145.526 823.033 142.318C828.355 139.049 832.501 134.586 835.471 128.93C838.5 123.214 839.995 116.756 839.956 109.556C839.917 102.236 838.352 95.7642 835.261 90.1408C832.171 84.4574 827.947 80.0401 822.59 76.889C817.292 73.6775 811.194 72.0904 804.294 72.1276C797.394 72.1649 791.283 73.8179 785.96 77.0866C780.637 80.2954 776.462 84.758 773.432 90.4744C770.403 96.1308 768.908 102.619 768.947 109.939C768.986 117.139 770.521 123.581 773.552 129.264C776.642 134.888 780.866 139.305 786.223 142.516C791.64 145.667 797.799 147.224 804.699 147.187Z" fill="#001C55"/>
</g>
<defs>
<filter id="filter0_d_2_4" x="0.472412" y="0.674042" width="857.574" height="214.175" filterUnits="userSpaceOnUse" color-interpolation-filters="sRGB">
<feFlood flood-opacity="0" result="BackgroundImageFix"/>
<feColorMatrix in="SourceAlpha" type="matrix" values="0 0 0 0 0 0 0 0 0 0 0 0 0 0 0 0 0 0 127 0" result="hardAlpha"/>
<feOffset dy="4"/>
<feGaussianBlur stdDeviation="2"/>
<feComposite in2="hardAlpha" operator="out"/>
<feColorMatrix type="matrix" values="0 0 0 0 0 0 0 0 0 0 0 0 0 0 0 0 0 0 0.1 0"/>
<feBlend mode="normal" in2="BackgroundImageFix" result="effect1_dropShadow_2_4"/>
<feBlend mode="normal" in="SourceGraphic" in2="effect1_dropShadow_2_4" result="shape"/>
</filter>
</defs>
</svg>
